<?xml version="1.0" encoding="UTF-8" standalone="no"?>
<svg
   width="440"
   height="76"
   viewBox="0 3 440 76"
   role="img"
   aria-labelledby="title desc"
   version="1.1"
   id="svg13"
   xmlns="http://www.w3.org/2000/svg"
   xmlns:svg="http://www.w3.org/2000/svg">
  <title
     id="title">Macrophile logo</title>
  <desc
     id="desc">Bright green Macrophile wordmark on a transparent background.</desc>
  <defs
     id="defs9">
    <linearGradient
       id="logoFill"
       x1="0"
       y1="0"
       x2="0"
       y2="1">
      <stop
         offset="0%"
         stop-color="#39d874"
         id="stop4" />
      <stop
         offset="100%"
         stop-color="#24bf5c"
         id="stop6" />
    </linearGradient>
  </defs>
  <g
     aria-label="Macrophile"
     id="text11"
     style="font-size:78px;font-family:Tahoma, Verdana, Arial, sans-serif;letter-spacing:-1.4;fill:url(#logoFill)">
    <path
       d="M 5.6552734,9.1376953 H 17.119141 L 31.629883,47.833008 46.216797,9.1376953 H 57.680664 V 66 h -7.50293 V 16.069336 l -14.663086,39 h -7.731445 l -14.663086,-39 V 66 H 5.6552734 Z"
       id="path17" />
    <path
       d="m 90.634178,44.557617 q -8.493164,0 -11.768555,1.942383 -3.27539,1.942383 -3.27539,6.626953 0,3.732422 2.4375,5.941406 2.475586,2.170899 6.703125,2.170899 5.827148,0 9.331055,-4.113281 3.541992,-4.151368 3.541992,-11.006836 V 44.557617 Z M 104.61172,41.663086 V 66 h -7.007815 v -6.474609 q -2.399414,3.884765 -5.979492,5.750976 -3.580079,1.828125 -8.759766,1.828125 -6.550781,0 -10.435547,-3.65625 -3.84668,-3.694336 -3.84668,-9.864258 0,-7.198242 4.798828,-10.854492 4.836915,-3.65625 14.396485,-3.65625 h 9.826172 v -0.685547 q 0,-4.836914 -3.199219,-7.464843 -3.161133,-2.666016 -8.912109,-2.666016 -3.65625,0 -7.122071,0.875976 -3.46582,0.875977 -6.665039,2.62793 v -6.474609 q 3.84668,-1.485352 7.464844,-2.208985 3.618164,-0.761718 7.045898,-0.761718 9.254883,0 13.825191,4.798828 4.57032,4.798828 4.57032,14.548828 z"
       id="path19" />
    <path
       d="m 148.34355,24.981445 v 6.550782 q -2.9707,-1.637696 -5.97949,-2.4375 -2.9707,-0.837891 -6.01758,-0.837891 -6.81738,0 -10.58789,4.341797 -3.77051,4.303711 -3.77051,12.111328 0,7.807617 3.77051,12.149414 3.77051,4.303711 10.58789,4.303711 3.04688,0 6.01758,-0.799805 3.00879,-0.83789 5.97949,-2.475586 v 6.47461 q -2.93262,1.371093 -6.09375,2.05664 -3.12305,0.685547 -6.66504,0.685547 -9.63574,0 -15.31054,-6.055664 -5.67481,-6.055664 -5.67481,-16.338867 0,-10.435547 5.71289,-16.415039 5.75098,-5.979492 15.72949,-5.979492 3.23731,0 6.32227,0.685547 3.08496,0.64746 5.97949,1.980468 z"
       id="path21" />
    <path
       d="m 183.84883,29.894531 q -1.18066,-0.685547 -2.58984,-0.990234 -1.3711,-0.342774 -3.04688,-0.342774 -5.9414,0 -9.14062,3.884766 -3.16114,3.84668 -3.16114,11.083008 V 66 h -7.04589 V 23.34375 h 7.04589 v 6.626953 q 2.20899,-3.884766 5.75098,-5.750976 3.54199,-1.904297 8.60742,-1.904297 0.72364,0 1.59961,0.114257 0.87598,0.07617 1.94239,0.266602 z"
       id="path23" />
    <path
       d="m 204.61484,28.256836 q -5.63672,0 -8.91211,4.417969 -3.27539,4.379882 -3.27539,12.035156 0,7.655273 3.2373,12.073242 3.27539,4.379883 8.9502,4.379883 5.59863,0 8.87402,-4.417969 3.27539,-4.417969 3.27539,-12.035156 0,-7.579102 -3.27539,-11.99707 -3.27539,-4.456055 -8.87402,-4.456055 z m 0,-5.941406 q 9.14062,0 14.3584,5.941406 5.21777,5.941406 5.21777,16.453125 0,10.473633 -5.21777,16.453125 -5.21778,5.941406 -14.3584,5.941406 -9.17871,0 -14.39649,-5.941406 -5.17968,-5.979492 -5.17968,-16.453125 0,-10.511719 5.17968,-16.453125 5.21778,-5.941406 14.39649,-5.941406 z"
       id="path25" />
    <path
       d="m 241.18652,59.601562 v 22.623047 h -7.0459 V 23.34375 h 7.0459 v 6.474609 q 2.20899,-3.808593 5.56055,-5.636718 3.38965,-1.866211 8.07422,-1.866211 7.76953,0 12.60644,6.169922 4.875,6.169921 4.875,16.224609 0,10.054687 -4.875,16.224609 -4.83691,6.169922 -12.60644,6.169922 -4.68457,0 -8.07422,-1.828125 -3.35156,-1.866211 -5.56055,-5.674805 z m 23.8418,-14.891601 q 0,-7.731445 -3.19922,-12.111328 -3.16113,-4.417969 -8.72168,-4.417969 -5.56055,0 -8.75976,4.417969 -3.16114,4.379883 -3.16114,12.111328 0,7.731445 3.16114,12.149414 3.19921,4.379883 8.75976,4.379883 5.56055,0 8.72168,-4.379883 3.19922,-4.417969 3.19922,-12.149414 z"
       id="path27" />
    <path
       d="M 317.97696,40.253906 V 66 h -7.00781 V 40.482422 q 0,-6.055664 -2.36133,-9.064453 -2.36133,-3.008789 -7.08399,-3.008789 -5.6748,0 -8.95019,3.618164 -3.27539,3.618164 -3.27539,9.864258 V 66 h -7.0459 V 6.7382812 h 7.0459 V 29.970703 q 2.51367,-3.84668 5.90332,-5.750976 3.42773,-1.904297 7.88379,-1.904297 7.35058,0 11.12109,4.570312 3.77051,4.532227 3.77051,13.368164 z"
       id="path29" />
    <path
       d="m 330.5545,23.34375 h 7.00782 V 66 h -7.00782 z m 0,-16.6054688 h 7.00782 v 8.8740238 h -7.00782 z"
       id="path31" />
    <path
       d="m 350.82538,6.7382812 h 7.00781 V 66 h -7.00781 z"
       id="path33" />
    <path
       d="m 407.58261,42.919922 v 3.427734 h -32.2207 q 0.45703,7.236328 4.34179,11.044922 3.92286,3.770508 10.89258,3.770508 4.03711,0 7.80762,-0.990234 3.80859,-0.990235 7.54102,-2.970704 v 6.626954 q -3.77051,1.599609 -7.73145,2.4375 -3.96094,0.83789 -8.03613,0.83789 -10.20703,0 -16.18653,-5.941406 -5.9414,-5.941406 -5.9414,-16.072266 0,-10.473633 5.63672,-16.605468 5.6748,-6.169922 15.27246,-6.169922 8.60742,0 13.59668,5.560547 5.02734,5.52246 5.02734,15.043945 z m -7.00781,-2.056641 q -0.0762,-5.750976 -3.23731,-9.178711 -3.12304,-3.427734 -8.30273,-3.427734 -5.86523,0 -9.40723,3.313476 -3.5039,3.313477 -4.03711,9.331055 z"
       id="path35" />
  </g>
</svg>
